<?xml version="1.0" encoding="UTF-8"?> <svg xmlns="http://www.w3.org/2000/svg" id="Layer_2" data-name="Layer 2" viewBox="0 0 339.32 96.25"><defs><style> .cls-1 { fill: #fff; stroke-width: 0px; } </style></defs><g id="Layer_1-2" data-name="Layer 1"><g><path class="cls-1" d="m23.75,49.8c0-5.59-1.99-9.35-5.61-9.35-1.36,0-2.63.49-3.64,1.43-.45.42-.71,1.01-.72,1.62l-.13,12.38c0,.58.21,1.15.62,1.57,1.01,1.03,2.37,1.69,3.87,1.69,3.4,0,5.61-3.37,5.61-9.35Zm13.66,0c0,12.03-4.8,20-13.29,20-4.8,0-8.79-2.53-10.19-7.13h-.37l-.2,17.29c-.01,1.2-.99,2.17-2.2,2.17H2.74c-1.2,0-2.18-.97-2.2-2.17L0,33.87c-.01-1.17.89-2.14,2.05-2.22l9.51-.63c1.28-.08,2.36.94,2.34,2.22l-.04,3.68h.37c1.33-4.29,4.95-7.13,9.89-7.13,7.98,0,13.29,7.2,13.29,20Z"></path><path class="cls-1" d="m43.2,31.24l9.51-.63c1.28-.08,2.36.94,2.34,2.22l-.54,46.33c-.01,1.2-.99,2.17-2.2,2.17h-8.43c-1.2,0-2.18-.97-2.2-2.17l-.54-45.7c-.01-1.17.89-2.14,2.05-2.22"></path><path class="cls-1" d="m79.77,63.92l-.08-2.35c-.03-1-.73-1.86-1.71-2.08-.65-.15-1.36-.23-2.11-.23-2.14,0-3.62,1.46-3.62,3.98,0,2.38,1.18,3.99,3.32,3.99,1.58,0,2.98-.73,3.89-2.13.23-.35.31-.77.3-1.18Zm13.09-15.61l-.14,24.25c0,1.21-.99,2.19-2.2,2.19h-8.42c-1.2,0-2.18-.96-2.2-2.17l-.04-2.81h-.37c-1.48,3.75-4.95,6.21-9.45,6.21-6.87,0-11.45-4.06-11.45-11.19s4.58-11.34,12.78-11.34c1.74,0,3.67.23,5.48.65,1.39.32,2.7-.75,2.68-2.17l-.03-2.23c0-2.07-1.7-3.45-4.65-3.45s-6.15.82-9.13,2.28c-1.1.54-2.43.11-2.96-.99l-2.16-4.43c-.51-1.06-.11-2.34.93-2.91,4.72-2.55,10.67-4.22,16.27-4.22,9.08,0,15.14,4.44,15.06,12.34Z"></path><path class="cls-1" d="m121.48,29.55l9.21-.62c1.28-.09,2.36.94,2.35,2.22l-.42,34.17c-.15,10.65-8.12,17.7-22.15,17.7-3.71,0-8.21-1.11-12.08-3.06-.79-.4-1.23-1.27-1.15-2.15l.55-5.83c.15-1.59,1.86-2.46,3.27-1.7,2.7,1.45,5.89,2.32,8.97,2.32,5.98,0,9.89-3.07,9.82-8.5l-.07-5.75h-.52c-.96,5.13-4.8,8.58-10.48,8.58-6.13,0-10.34-4.21-10.49-11.72l-.47-23.42c-.02-1.17.88-2.16,2.05-2.24l9.19-.62c1.28-.09,2.36.94,2.35,2.22l-.26,19.23c-.07,2.91,1.26,4.9,3.77,4.9,1.83,0,3.47-.97,4.53-2.78.19-.33.27-.71.26-1.09l-.26-19.64c-.01-1.17.88-2.14,2.05-2.22"></path><path class="cls-1" d="m166.97,73.52l-.13-12.38c0-.62-.27-1.2-.72-1.62-1.02-.94-2.28-1.43-3.64-1.43-3.62,0-5.61,3.75-5.61,9.35,0,5.98,2.21,9.35,5.61,9.35,1.5,0,2.86-.66,3.87-1.69.41-.42.63-.99.62-1.57Zm1.64-37.41l9.51-.63c1.28-.08,2.36.94,2.34,2.22l-.54,46.33c-.01,1.2-.99,2.17-2.2,2.17h-8.43c-1.2,0-2.18-.97-2.2-2.17l-.05-3.73h-.37c-1.4,4.6-5.39,7.13-10.19,7.13-8.49,0-13.29-7.97-13.29-20,0-12.8,5.32-20,13.29-20,4.95,0,8.57,2.83,9.9,7.12h.37l-.2-16.23c-.01-1.17.89-2.14,2.05-2.22Z"></path><path class="cls-1" d="m198.04,61.46c0,5.67,1.99,9.43,5.46,9.43,3.25,0,5.46-3.37,5.46-9.43,0-5.67-1.99-9.42-5.46-9.42-3.25,0-5.46,3.37-5.46,9.42m24.59,0c0,12.03-6.87,20-19.12,20-11.44,0-19.12-7.2-19.12-20,0-12.03,6.87-20,19.12-20,11.45,0,19.12,7.2,19.12,20"></path><path class="cls-1" d="m249.79,42.7l9.21-.62c1.28-.09,2.36.94,2.35,2.22l-.39,33.15c-.01,1.2-.99,2.17-2.2,2.17h-8.43c-1.21,0-2.18-.97-2.2-2.18l-.05-5.26h-.52c-.96,5.21-4.8,8.66-10.48,8.66-6.28,0-10.56-4.29-10.63-11.95l-.34-23.97c-.02-1.17.88-2.15,2.05-2.22l9.21-.62c1.28-.09,2.36.94,2.35,2.22l-.27,20.68c0,2.45,1.33,4.14,3.77,4.14,1.91,0,3.57-1.11,4.57-3.04.16-.31.23-.66.22-1.01l-.26-20.15c-.01-1.17.88-2.14,2.05-2.22h0Z"></path><path class="cls-1" d="m277.45,53.19c0,4.29,1.63,7.13,4.58,7.13,2.73,0,4.58-2.38,4.58-6.67s-1.63-7.13-4.58-7.13c-2.73,0-4.58,2.38-4.58,6.67m11.15,31.57c0-1.3-1.4-2.15-3.99-2.15h-7.02c-.59,0-1.11,0-1.63-.08-.29.46-.44,1.07-.44,1.68,0,2.15,2.36,3.52,6.57,3.52,3.91,0,6.5-1.07,6.5-2.99Zm-1.63-12.64c7.61,0,12.7,4.06,12.7,11.26,0,7.74-6.5,12.87-18.02,12.87-9.82,0-16.32-3.83-16.32-10.65,0-2.24.74-4.23,2.1-5.69.59-.63.87-1.52.54-2.31-.37-.89-.56-1.89-.56-2.96,0-2.44.96-4.66,2.6-6.17.93-.86.96-2.34.01-3.19-2.99-2.72-4.69-6.71-4.69-11.86,0-9.5,5.98-15.86,16.62-15.86.95,0,1.89.06,2.78.17,1.26.16,2.36-.72,2.51-1.98.68-5.58,4.09-9.08,10.06-9.08.09,0,.19,0,.29,0,1.26.04,2.23,1.15,2.12,2.4l-.63,6.79c-.12,1.36-1.45,2.17-2.78,1.84-.43-.11-.87-.16-1.29-.16h-.05c-1.96.02-2.75,2.58-1.26,3.85,3.14,2.69,4.93,6.78,4.93,12,0,9.5-5.98,15.86-16.69,15.86-1.99,0-3.91-.23-5.61-.69-.59.38-.96,1.07-.96,1.84,0,1,1.25,1.69,3.4,1.69h8.2Z"></path><path class="cls-1" d="m339.32,59.85l-.34,24.8c-.02,1.2-1,2.17-2.2,2.17h-8.44c-1.2,0-2.18-.97-2.2-2.17l-.27-20.74c0-2.45-1.4-4.14-3.91-4.14-1.72,0-3.33.8-4.38,2.3-.24.34-.34.76-.35,1.17l-.26,21.41c-.01,1.2-.99,2.17-2.2,2.17h-8.43c-1.2,0-2.18-.97-2.2-2.17l-.54-45.7c-.01-1.17.89-2.14,2.05-2.22l9.51-.63c1.28-.08,2.35.94,2.34,2.22l-.2,18.39h.52c.96-5.13,4.95-8.66,10.93-8.66,6.43,0,10.63,4.29,10.56,11.8h0Z"></path><path class="cls-1" d="m20.64,6.91l-.12,8.75c-.01.82-.68,1.48-1.5,1.48h-1.76c-.82,0-1.49-.66-1.5-1.49l-.09-7.27c0-.79-.46-1.3-1.26-1.3-.24,0-.48.05-.72.14-.54.21-.87.77-.88,1.35l-.1,7.09c-.01.82-.68,1.48-1.5,1.48h-1.76c-.82,0-1.49-.66-1.5-1.49l-.09-7.27c0-.79-.47-1.3-1.26-1.3-.25,0-.51.06-.77.17-.52.23-.85.77-.85,1.34l-.08,7.06c0,.82-.68,1.49-1.5,1.49h-1.75c-.82,0-1.49-.66-1.5-1.49L0,4.96c0-.8.61-1.47,1.4-1.52l2.01-.14c.87-.06,1.61.64,1.6,1.52v1.18s.15,0,.15,0c.38-1.9,1.86-3.17,3.96-3.17,1.97,0,3.33,1.13,3.63,3.17h.16c.38-1.9,1.91-3.17,4.02-3.17,2.24,0,3.71,1.47,3.69,4.08"></path><path class="cls-1" d="m32.2.14L34.21,0c.88-.06,1.62.64,1.6,1.52l-.14,11.89c-.05,3.94-3.01,6.55-8.2,6.55-1.22,0-2.67-.32-3.98-.9-.58-.26-.93-.87-.87-1.51l.07-.7c.1-1,1.12-1.62,2.06-1.25.81.32,1.7.51,2.56.51,2.21,0,3.66-1.13,3.63-3.15l-.03-2.13h-.19c-.35,1.9-1.78,3.18-3.88,3.18-2.27,0-3.82-1.56-3.88-4.34l-.16-8.01c-.02-.8.6-1.48,1.4-1.53L26.2,0c.88-.06,1.62.64,1.61,1.52l-.09,6.36c-.03,1.08.46,1.81,1.39,1.81.58,0,1.11-.26,1.5-.77.19-.25.27-.57.27-.88l-.09-6.39c0-.8.61-1.47,1.4-1.52Z"></path></g></g></svg> 