<svg width="131" height="31" viewBox="0 0 131 31" version="1.1" xmlns="http://www.w3.org/2000/svg" xmlns:xlink="http://www.w3.org/1999/xlink">
<title>KeyPayLogo</title>
<desc>Created using Figma</desc>
<g id="Canvas" transform="translate(3468 -159)">
<g id="KeyPayLogo">
<g id="Group 3">
<mask id="mask0_outline" mask-type="alpha">
<g id="Clip 2">
<use xlink:href="#path0_fill" transform="translate(-3468 159.4)" fill="#FFFFFF"/>
</g>
</mask>
<g id="Fill 1" mask="url(#mask0_outline)">
<use xlink:href="#path1_fill" transform="translate(-3468 159.4)" fill="#2D388D"/>
</g>
</g>
<g id="Fill 4">
<use xlink:href="#path2_fill" transform="translate(-3426.28 166.432)" fill="#2D388D"/>
</g>
<g id="Fill 6">
<use xlink:href="#path3_fill" transform="translate(-3410.11 166.536)" fill="#2D388D"/>
</g>
<g id="Fill 8">
<use xlink:href="#path4_fill" transform="translate(-3396.08 166.411)" fill="#2D388D"/>
</g>
<g id="Fill 10">
<use xlink:href="#path5_fill" transform="translate(-3379.05 166.536)" fill="#231F20"/>
</g>
<g id="Fill 12">
<use xlink:href="#path6_fill" transform="translate(-3366.04 166.328)" fill="#231F20"/>
</g>
<g id="Fill 14">
<use xlink:href="#path4_fill" transform="translate(-3350.63 166.411)" fill="#231F20"/>
</g>
</g>
</g>
<defs>
<path id="path0_fill" fill-rule="evenodd" d="M 0 30.2812L 30.6881 30.2812L 30.6881 0L 0 0L 0 30.2812Z"/>
<path id="path1_fill" fill-rule="evenodd" d="M 15.344 0C 6.86959 0 0 6.77886 0 15.1405C 0 15.9773 0.0717864 16.7973 0.204003 17.5973C 0.335003 18.1043 0.774644 19.2577 2.08099 19.2893C 3.54308 19.3249 4.89364 19.2445 6.27908 18.719C 8.6387 17.825 13.6167 16.0657 8.51013 11.3499C 8.32519 11.1674 8.12849 10.8416 8.03359 10.5227C 7.73427 9.51377 8.32073 8.45647 9.34277 8.16112C 10.3652 7.86578 11.4367 8.44446 11.7361 9.45294C 11.7653 9.55099 11.7904 9.7815 11.8042 10.1685C 12.3688 16.3875 16.7262 14.1468 17.438 8.3284C 17.5256 7.56164 18.0533 6.95815 18.8133 6.73884C 19.8358 6.4435 20.9073 7.02178 21.2066 8.03066C 21.4593 8.88307 20.9393 9.78951 20.3456 10.2089C 16.8045 12.576 15.5626 17.1727 22.8196 16.8445C 23.743 16.7765 24.6045 17.3051 24.8705 18.2016C 25.1698 19.21 24.5834 20.2673 23.5609 20.5627C 22.9412 20.742 22.3049 20.5983 21.832 20.2341C 21.8316 20.2345 21.8312 20.2349 21.8308 20.2353C 16.5924 16.0701 11.6156 16.5015 16.4496 21.139C 16.4496 21.139 16.4496 21.1394 16.4492 21.1394C 16.6723 21.3583 16.8442 21.6336 16.9387 21.9526C 17.2381 22.9614 16.652 24.0187 15.6296 24.3141C 14.6071 24.6094 13.536 24.0308 13.2363 23.0223C 13.1787 22.827 13.1523 22.564 13.1531 22.438C 13.2529 15.8512 8.39779 19.8339 5.3495 22.971C 3.6968 24.6803 4.59676 25.9033 4.90337 26.2314C 7.64221 28.743 11.3102 30.2814 15.344 30.2814C 23.8185 30.2814 30.6881 23.5025 30.6881 15.1405C 30.6881 6.77886 23.8185 0 15.344 0Z"/>
<path id="path2_fill" fill-rule="evenodd" d="M 0 1.27541C 0 0.564671 0.572263 0 1.31365 0C 2.03435 0 2.60621 0.564671 2.60621 1.27541L 2.60621 7.46439L 9.64128 0.481031C 9.93775 0.16728 10.2557 0 10.7221 0C 11.4424 0 11.9299 0.564671 11.9299 1.19177C 11.9299 1.58916 11.7604 1.8817 11.4635 2.15344L 6.84404 6.54435L 11.8452 12.6705C 12.0569 12.9422 12.2053 13.1931 12.2053 13.5901C 12.2053 14.3017 11.633 14.8447 10.8913 14.8447C 10.3831 14.8447 10.0651 14.5938 9.78971 14.2388L 5.0218 8.23756L 2.60621 10.5383L 2.60621 13.5697C 2.60621 14.2805 2.03435 14.8447 1.31365 14.8447C 0.572263 14.8447 0 14.2805 0 13.5697L 0 1.27541Z"/>
<path id="path3_fill" fill-rule="evenodd" d="M 0 13.3396L 0 1.29622C 0 0.564671 0.572263 0 1.31365 0L 9.93775 0C 10.5737 0 11.1034 0.522651 11.1034 1.15015C 11.1034 1.79806 10.5737 2.29991 9.93775 2.29991L 2.60621 2.29991L 2.60621 6.10534L 8.98425 6.10534C 9.62018 6.10534 10.1499 6.62799 10.1499 7.2763C 10.1499 7.9034 9.62018 8.40524 8.98425 8.40524L 2.60621 8.40524L 2.60621 12.3359L 10.044 12.3359C 10.6795 12.3359 11.2092 12.859 11.2092 13.4857C 11.2092 14.134 10.6795 14.6358 10.044 14.6358L 1.31365 14.6358C 0.572263 14.6358 0 14.0712 0 13.3396Z"/>
<path id="path4_fill" fill-rule="evenodd" d="M 5.40345 9.07436L 0.296879 2.15344C 0.12735 1.90251 0 1.61037 0 1.2546C 0 0.564271 0.572263 0.0212102 1.31406 0.0212102C 1.88591 0.0212102 2.26756 0.334561 2.58512 0.794782L 6.7171 6.66961L 10.9127 0.773972C 11.2307 0.313351 11.612 0 12.1631 0C 12.9256 0 13.4342 0.564271 13.4342 1.2546C 13.4342 1.61037 13.2647 1.92372 13.074 2.17465L 8.00966 9.01153L 8.00966 13.5905C 8.00966 14.3017 7.4378 14.8659 6.69601 14.8659C 5.97571 14.8659 5.40345 14.3017 5.40345 13.5905L 5.40345 9.07436Z"/>
<path id="path5_fill" fill-rule="evenodd" d="M 5.63624 7.61085C 7.60691 7.61085 8.8358 6.52353 8.8358 4.9976L 8.8358 4.95518C 8.8358 3.24115 7.58582 2.34192 5.63624 2.34192L 2.6062 2.34192L 2.6062 7.61085L 5.63624 7.61085ZM 0 1.29662C 0 0.565072 0.571858 0 1.31365 0L 5.84795 0C 9.32331 0 11.4846 1.94453 11.4846 4.89275L 11.4846 4.93477C 11.4846 8.21715 8.81472 9.93198 5.55148 9.93198L 2.60621 9.93198L 2.60621 13.4653C 2.60621 14.176 2.03395 14.7403 1.31365 14.7403C 0.571858 14.7403 0 14.176 0 13.4653L 0 1.29662Z"/>
<path id="path6_fill" fill-rule="evenodd" d="M 9.87445 9.03235L 7.26824 3.11551L 4.66162 9.03235L 9.87445 9.03235ZM 0.169529 13.1723L 5.67883 1.0453C 5.97571 0.396991 6.50539 0 7.24677 0L 7.37412 0C 8.11592 0 8.6241 0.396991 8.92098 1.0453L 14.4303 13.1723C 14.5361 13.36 14.5787 13.5485 14.5787 13.7158C 14.5787 14.4061 14.0486 14.9492 13.3494 14.9492C 12.735 14.9492 12.3112 14.5938 12.0784 14.0504L 10.8706 11.3114L 3.66597 11.3114L 2.41559 14.134C 2.20388 14.657 1.75897 14.9492 1.2078 14.9492C 0.529678 14.9492 0 14.4265 0 13.7578C 0 13.5697 0.0636749 13.3812 0.169529 13.1723Z"/>
</defs>
</svg>
